<svg xmlns="http://www.w3.org/2000/svg" width="128" height="128" viewBox="0 0 128 128">
  <defs>
    <linearGradient id="g" x1="0" y1="0" x2="1" y2="1">
      <stop offset="0" stop-color="#ffffff" stop-opacity="0.95"/>
      <stop offset="1" stop-color="#e5e7eb" stop-opacity="0.85"/>
    </linearGradient>
    <radialGradient id="glow" cx="0.3" cy="0.2" r="0.9">
      <stop offset="0" stop-color="#ffffff" stop-opacity="0.9"/>
      <stop offset="1" stop-color="#ffffff" stop-opacity="0.05"/>
    </radialGradient>
  </defs>
  <rect width="128" height="128" rx="28" fill="url(#glow)"/>
  <circle cx="64" cy="64" r="40" fill="url(#g)"/>
  <path d="M86 64c0 12.15-9.85 22-22 22-12.15 0-22-9.85-22-22s9.85-22 22-22c6.42 0 12.2 2.78 16.2 7.22l-7.6 6.6c-2.2-2.46-5.4-3.98-8.6-3.98-6.98 0-12.64 5.66-12.64 12.64S55.02 77.12 62 77.12c4.88 0 9.12-2.78 11.24-6.88H64v-9.2h22z" fill="#0b0b0b"/>
</svg>

