<svg width="13" height="14" viewBox="0 0 13 14" fill="none" xmlns="http://www.w3.org/2000/svg">
<g filter="url(#filter0_g_196_664)">
<path d="M6.58818 12.5151C5.36032 12.5151 4.29941 12.2727 3.40545 11.7881C2.51149 11.2926 1.82216 10.6033 1.33749 9.72009C0.852806 8.82613 0.610466 7.78138 0.610466 6.58583C0.610466 5.39029 0.852806 4.34554 1.33749 3.45158C1.82216 2.54684 2.49533 1.84136 3.35698 1.33514C4.21863 0.818152 5.2203 0.559656 6.36199 0.559656C7.28827 0.559656 8.11761 0.731986 8.85001 1.07665C9.59319 1.41054 10.191 1.87367 10.6433 2.46606C11.1065 3.04768 11.3865 3.72623 11.4834 4.50171H9.38316C9.27545 3.81239 8.95233 3.26847 8.4138 2.86996C7.87527 2.47145 7.2021 2.27219 6.3943 2.27219C5.6619 2.27219 5.02105 2.44452 4.47174 2.78918C3.92244 3.13384 3.497 3.62391 3.19542 4.25937C2.89384 4.89484 2.74305 5.65417 2.74305 6.53737C2.74305 7.4421 2.89384 8.21759 3.19542 8.86383C3.50777 9.49929 3.95475 9.98397 4.53637 10.3179C5.12875 10.6518 5.85039 10.8187 6.70127 10.8187C7.35828 10.8187 7.92374 10.7379 8.39765 10.5764C8.87155 10.404 9.25391 10.1509 9.54472 9.81703L11.5642 10.6087C10.9503 11.2334 10.2394 11.7073 9.43163 12.0304C8.62383 12.3535 7.67601 12.5151 6.58818 12.5151ZM9.46394 10.6087V7.21592L9.96477 7.71675H6.68511V6.06884H11.5642V10.6087H9.46394Z" fill="#F3F4F9"/>
</g>
<defs>
<filter id="filter0_g_196_664" x="0.060309" y="0.0105043" width="12.0542" height="13.0552" filterUnits="userSpaceOnUse" color-interpolation-filters="sRGB">
<feFlood flood-opacity="0" result="BackgroundImageFix"/>
<feBlend mode="normal" in="SourceGraphic" in2="BackgroundImageFix" result="shape"/>
<feTurbulence type="fractalNoise" baseFrequency="1.3635309934616089 1.3635309934616089" numOctaves="3" seed="8975" />
<feDisplacementMap in="shape" scale="1.1000851392745972" xChannelSelector="R" yChannelSelector="G" result="displacedImage" width="100%" height="100%" />
<feMerge result="effect1_texture_196_664">
<feMergeNode in="displacedImage"/>
</feMerge>
</filter>
</defs>
</svg>
