<svg width="16" height="16" viewBox="0 0 16 16" fill="none" xmlns="http://www.w3.org/2000/svg">
<path fill-rule="evenodd" clip-rule="evenodd" d="M8.91311 3.18951C8.64857 2.1035 7.10307 2.1035 6.83853 3.18951C6.79903 3.3527 6.72157 3.50426 6.61243 3.63185C6.50329 3.75945 6.36557 3.85948 6.21048 3.92379C6.05538 3.98811 5.88729 4.0149 5.71988 4.00198C5.55247 3.98907 5.39048 3.93681 5.24709 3.84946C4.29194 3.26748 3.19896 4.36044 3.78095 5.31557C4.15688 5.93237 3.82342 6.73713 3.12168 6.90769C2.03496 7.17153 2.03496 8.7177 3.12168 8.98085C3.28492 9.02039 3.43651 9.09793 3.5641 9.20715C3.6917 9.31637 3.7917 9.45418 3.85596 9.60935C3.92022 9.76453 3.94691 9.93269 3.93388 10.1001C3.92085 10.2676 3.86845 10.4296 3.78095 10.573C3.19896 11.5281 4.29194 12.6211 5.24709 12.0391C5.39046 11.9516 5.55246 11.8992 5.71991 11.8861C5.88737 11.8731 6.05553 11.8998 6.21071 11.9641C6.36589 12.0283 6.5037 12.1283 6.61292 12.2559C6.72214 12.3835 6.79968 12.5351 6.83923 12.6983C7.10307 13.785 8.64927 13.785 8.91242 12.6983C8.9521 12.5352 9.02971 12.3837 9.13896 12.2562C9.2482 12.1287 9.38599 12.0288 9.54112 11.9645C9.69625 11.9003 9.86435 11.8736 10.0318 11.8865C10.1992 11.8995 10.3612 11.9517 10.5046 12.0391C11.4597 12.6211 12.5527 11.5281 11.9707 10.573C11.8834 10.4296 11.8311 10.2676 11.8181 10.1002C11.8052 9.93277 11.8319 9.76467 11.8961 9.60954C11.9604 9.45441 12.0603 9.31662 12.1878 9.20738C12.3153 9.09814 12.4668 9.02053 12.63 8.98085C13.7167 8.717 13.7167 7.17084 12.63 6.90769C12.4667 6.86814 12.3151 6.7906 12.1875 6.68139C12.0599 6.57217 11.9599 6.43436 11.8957 6.27918C11.8314 6.124 11.8047 5.95584 11.8178 5.78839C11.8308 5.62094 11.8832 5.45894 11.9707 5.31557C12.5527 4.36044 11.4597 3.26748 10.5046 3.84946C10.3612 3.93696 10.1992 3.98935 10.0317 4.00239C9.86428 4.01542 9.69612 3.98872 9.54093 3.92447C9.38575 3.86021 9.24794 3.76021 9.13872 3.63262C9.0295 3.50502 8.95196 3.35344 8.91242 3.1902L8.91311 3.18951Z" stroke="white" stroke-width="1.2376"/>
<path d="M9.11342 7.94418C9.11342 8.62769 8.55933 9.18178 7.87582 9.18178C7.19232 9.18178 6.63823 8.62769 6.63823 7.94418C6.63823 7.26068 7.19232 6.70659 7.87582 6.70659C8.55933 6.70659 9.11342 7.26068 9.11342 7.94418Z" stroke="white" stroke-width="1.2376"/>
</svg>
