<svg width="222" height="127" viewBox="0 0 222 127" fill="none" xmlns="http://www.w3.org/2000/svg">
<g filter="url(#filter0_g_20_242)">
<path d="M46.6942 78.8033C40.5891 78.8033 35.3141 77.5984 30.8692 75.1885C26.4243 72.725 22.9969 69.2976 20.587 64.9063C18.1771 60.4614 16.9722 55.2667 16.9722 49.3223C16.9722 43.3779 18.1771 38.1833 20.587 33.7384C22.9969 29.2399 26.344 25.7322 30.6282 23.2152C34.9125 20.6446 39.8929 19.3594 45.5695 19.3594C50.1751 19.3594 54.2987 20.2162 57.9403 21.9299C61.6355 23.5901 64.6077 25.8928 66.8569 28.8383C69.1597 31.7301 70.5521 35.104 71.034 38.9598H60.5912C60.0557 35.5324 58.4491 32.828 55.7714 30.8465C53.0938 28.865 49.7467 27.8743 45.7302 27.8743C42.0886 27.8743 38.9022 28.7312 36.171 30.4449C33.4398 32.1586 31.3244 34.5952 29.8249 37.7549C28.3255 40.9145 27.5757 44.69 27.5757 49.0813C27.5757 53.5798 28.3255 57.4356 29.8249 60.6488C31.378 63.8084 33.6004 66.2183 36.4923 67.8785C39.4377 69.5386 43.0258 70.3687 47.2565 70.3687C50.5232 70.3687 53.3347 69.967 55.6911 69.1637C58.0474 68.3069 59.9485 67.0484 61.3945 65.3882L71.4357 69.3244C68.3832 72.4305 64.8487 74.7868 60.8322 76.3934C56.8157 78 52.103 78.8033 46.6942 78.8033ZM60.9928 69.3244V52.4552L63.4831 54.9454H47.1761V46.7518H71.4357V69.3244H60.9928ZM77.5144 78V20.1627H87.6359V78H77.5144ZM120.713 78C120.445 76.9289 120.231 75.7508 120.07 74.4655C119.963 73.1802 119.91 71.6272 119.91 69.8064H119.588V50.3666C119.588 48.2245 118.972 46.6179 117.741 45.5468C116.563 44.4222 114.742 43.8599 112.278 43.8599C109.868 43.8599 107.94 44.3151 106.495 45.2255C105.102 46.0824 104.245 47.3409 103.924 49.001H94.2041C94.6325 45.1987 96.4533 42.1194 99.6665 39.7631C102.88 37.4068 107.191 36.2286 112.6 36.2286C118.223 36.2286 122.48 37.5139 125.372 40.0844C128.264 42.6014 129.71 46.3234 129.71 51.2502V69.8064C129.71 71.0917 129.79 72.4037 129.951 73.7425C130.165 75.0814 130.46 76.5005 130.834 78H120.713ZM106.495 78.8033C102.371 78.8033 99.0774 77.7858 96.614 75.7508C94.2041 73.6622 92.9992 70.8774 92.9992 67.3965C92.9992 63.6478 94.3648 60.6756 97.096 58.4799C99.8272 56.2842 103.683 54.8115 108.663 54.0618L121.436 52.1339V58.5602L110.35 60.2472C107.94 60.622 106.12 61.2914 104.888 62.2554C103.71 63.2193 103.121 64.5582 103.121 66.2719C103.121 67.8249 103.683 69.0299 104.808 69.8867C105.932 70.69 107.485 71.0917 109.467 71.0917C112.359 71.0917 114.768 70.3687 116.696 68.9228C118.624 67.4768 119.588 65.7096 119.588 63.621L120.713 69.8064C119.642 72.7518 117.875 75.001 115.411 76.5541C113.001 78.0536 110.029 78.8033 106.495 78.8033ZM151.628 78.8033C145.951 78.8033 141.426 77.6251 138.052 75.2688C134.678 72.8589 132.831 69.5386 132.509 65.3079H141.747C142.015 67.3965 143.006 68.9763 144.72 70.0474C146.433 71.1184 148.736 71.654 151.628 71.654C154.252 71.654 156.207 71.2523 157.492 70.449C158.831 69.5922 159.5 68.3872 159.5 66.8342C159.5 65.7096 159.125 64.7992 158.376 64.103C157.626 63.3532 156.207 62.7374 154.118 62.2554L147.531 60.7291C143.033 59.7652 139.686 58.2657 137.49 56.2307C135.348 54.1421 134.277 51.5448 134.277 48.4387C134.277 44.6364 135.723 41.6642 138.614 39.5221C141.56 37.3264 145.603 36.2286 150.744 36.2286C155.832 36.2286 159.902 37.3264 162.954 39.5221C166.06 41.6642 167.774 44.6364 168.095 48.4387H158.858C158.59 46.7786 157.733 45.5201 156.287 44.6632C154.895 43.8064 152.967 43.3779 150.503 43.3779C148.2 43.3779 146.46 43.7528 145.282 44.5025C144.104 45.1987 143.515 46.243 143.515 47.6354C143.515 48.7065 143.97 49.6169 144.88 50.3666C145.791 51.0628 147.317 51.6787 149.459 52.2142L156.528 53.8208C160.544 54.7312 163.57 56.311 165.605 58.5602C167.694 60.8095 168.738 63.4603 168.738 66.5129C168.738 70.4222 167.239 73.448 164.24 75.5901C161.241 77.7322 157.037 78.8033 151.628 78.8033ZM188.815 78.8033C183.138 78.8033 178.613 77.6251 175.239 75.2688C171.865 72.8589 170.018 69.5386 169.696 65.3079H178.934C179.202 67.3965 180.193 68.9763 181.906 70.0474C183.62 71.1184 185.923 71.654 188.815 71.654C191.439 71.654 193.394 71.2523 194.679 70.449C196.018 69.5922 196.687 68.3872 196.687 66.8342C196.687 65.7096 196.312 64.7992 195.563 64.103C194.813 63.3532 193.394 62.7374 191.305 62.2554L184.718 60.7291C180.22 59.7652 176.872 58.2657 174.677 56.2307C172.535 54.1421 171.464 51.5448 171.464 48.4387C171.464 44.6364 172.91 41.6642 175.801 39.5221C178.747 37.3264 182.79 36.2286 187.931 36.2286C193.019 36.2286 197.089 37.3264 200.141 39.5221C203.247 41.6642 204.961 44.6364 205.282 48.4387H196.044C195.777 46.7786 194.92 45.5201 193.474 44.6632C192.082 43.8064 190.154 43.3779 187.69 43.3779C185.387 43.3779 183.647 43.7528 182.469 44.5025C181.291 45.1987 180.702 46.243 180.702 47.6354C180.702 48.7065 181.157 49.6169 182.067 50.3666C182.978 51.0628 184.504 51.6787 186.646 52.2142L193.715 53.8208C197.731 54.7312 200.757 56.311 202.792 58.5602C204.881 60.8095 205.925 63.4603 205.925 66.5129C205.925 70.4222 204.426 73.448 201.427 75.5901C198.428 77.7322 194.224 78.8033 188.815 78.8033Z" fill="#F3F4F9"/>
</g>
<path d="M29.7076 121.24C28.5076 121.24 27.3956 121.024 26.3716 120.592C25.3476 120.144 24.4596 119.528 23.7076 118.744C22.9716 117.944 22.3956 117 21.9796 115.912C21.5636 114.824 21.3556 113.632 21.3556 112.336C21.3556 111.04 21.5556 109.856 21.9556 108.784C22.3716 107.696 22.9476 106.76 23.6836 105.976C24.4356 105.176 25.3236 104.56 26.3476 104.128C27.3716 103.696 28.4836 103.48 29.6836 103.48C31.0276 103.48 32.2356 103.752 33.3076 104.296C34.3796 104.824 35.2516 105.576 35.9236 106.552C36.6116 107.528 37.0356 108.664 37.1956 109.96H34.6996C34.4916 108.6 33.9396 107.544 33.0436 106.792C32.1636 106.024 31.0516 105.64 29.7076 105.64C28.5716 105.64 27.5636 105.92 26.6836 106.48C25.8196 107.024 25.1476 107.8 24.6676 108.808C24.1876 109.8 23.9476 110.976 23.9476 112.336C23.9476 113.68 24.1876 114.864 24.6676 115.888C25.1636 116.896 25.8436 117.68 26.7076 118.24C27.5716 118.8 28.5716 119.08 29.7076 119.08C31.0516 119.08 32.1716 118.704 33.0676 117.952C33.9796 117.184 34.5316 116.12 34.7236 114.76H37.2436C37.0676 116.072 36.6356 117.216 35.9476 118.192C35.2596 119.152 34.3796 119.904 33.3076 120.448C32.2516 120.976 31.0516 121.24 29.7076 121.24ZM38.975 121V103.72H41.471V121H38.975ZM51.599 121C51.519 120.696 51.463 120.36 51.431 119.992C51.415 119.624 51.407 119.176 51.407 118.648H51.287V112.816C51.287 112.032 51.087 111.448 50.687 111.064C50.303 110.664 49.687 110.464 48.839 110.464C48.023 110.464 47.367 110.624 46.871 110.944C46.391 111.264 46.111 111.72 46.031 112.312H43.655C43.767 111.16 44.287 110.24 45.215 109.552C46.143 108.864 47.383 108.52 48.935 108.52C50.535 108.52 51.735 108.896 52.535 109.648C53.335 110.384 53.735 111.472 53.735 112.912V118.648C53.735 119.016 53.759 119.392 53.807 119.776C53.855 120.16 53.927 120.568 54.023 121H51.599ZM47.375 121.24C46.127 121.24 45.135 120.936 44.399 120.328C43.663 119.704 43.295 118.864 43.295 117.808C43.295 116.72 43.679 115.864 44.447 115.24C45.231 114.6 46.351 114.168 47.807 113.944L51.839 113.296V115.048L48.191 115.624C47.375 115.752 46.759 115.968 46.343 116.272C45.943 116.576 45.743 117.016 45.743 117.592C45.743 118.152 45.927 118.576 46.295 118.864C46.679 119.136 47.231 119.272 47.951 119.272C48.911 119.272 49.703 119.04 50.327 118.576C50.967 118.112 51.287 117.528 51.287 116.824L51.599 118.6C51.311 119.448 50.799 120.104 50.063 120.568C49.327 121.016 48.431 121.24 47.375 121.24ZM56.1565 121V108.76H58.5325V111.808H58.6525V121H56.1565ZM58.6525 114.616L58.3405 111.712C58.6285 110.672 59.1245 109.88 59.8285 109.336C60.5325 108.792 61.3725 108.52 62.3485 108.52C62.7165 108.52 62.9725 108.552 63.1165 108.616V110.968C63.0365 110.936 62.9245 110.92 62.7805 110.92C62.6365 110.904 62.4605 110.896 62.2525 110.896C61.0525 110.896 60.1485 111.208 59.5405 111.832C58.9485 112.456 58.6525 113.384 58.6525 114.616ZM64.1731 121V108.76H66.6691V121H64.1731ZM64.0531 106.36V103.552H66.8131V106.36H64.0531ZM74.3273 121.24C72.9033 121.24 71.8553 120.912 71.1833 120.256C70.5273 119.584 70.1993 118.6 70.1993 117.304V105.952L72.6713 105.016V117.328C72.6713 117.968 72.8393 118.44 73.1753 118.744C73.5113 119.048 74.0553 119.2 74.8073 119.2C75.0953 119.2 75.3513 119.176 75.5753 119.128C75.7993 119.08 75.9913 119.024 76.1513 118.96V120.976C75.9753 121.056 75.7273 121.12 75.4073 121.168C75.0873 121.216 74.7273 121.24 74.3273 121.24ZM67.7513 110.752V108.76H76.1513V110.752H67.7513ZM78.6338 125.92L81.5858 119.176L82.0898 118.384L85.8098 108.76H88.4018L81.2018 125.92H78.6338ZM81.4658 121L76.2338 108.76H78.9458L83.3858 119.776L81.4658 121ZM97.6788 121.24C96.0788 121.24 94.8068 120.888 93.8628 120.184C92.9188 119.48 92.3828 118.488 92.2548 117.208H94.5588C94.6708 117.912 94.9908 118.456 95.5188 118.84C96.0628 119.208 96.7988 119.392 97.7268 119.392C98.5428 119.392 99.1668 119.248 99.5988 118.96C100.031 118.672 100.247 118.264 100.247 117.736C100.247 117.352 100.119 117.032 99.8628 116.776C99.6228 116.504 99.1428 116.28 98.4228 116.104L96.4548 115.648C95.2228 115.344 94.3028 114.896 93.6948 114.304C93.1028 113.696 92.8068 112.952 92.8068 112.072C92.8068 110.968 93.2148 110.104 94.0308 109.48C94.8628 108.84 95.9988 108.52 97.4388 108.52C98.8628 108.52 100.007 108.84 100.871 109.48C101.751 110.12 102.247 111.016 102.359 112.168H100.055C99.9588 111.592 99.6788 111.152 99.2148 110.848C98.7668 110.528 98.1508 110.368 97.3668 110.368C96.6308 110.368 96.0628 110.504 95.6628 110.776C95.2788 111.032 95.0868 111.392 95.0868 111.856C95.0868 112.24 95.2308 112.56 95.5188 112.816C95.8228 113.072 96.3188 113.288 97.0068 113.464L99.0228 113.968C100.191 114.256 101.071 114.728 101.663 115.384C102.255 116.024 102.551 116.8 102.551 117.712C102.551 118.816 102.119 119.68 101.255 120.304C100.407 120.928 99.2148 121.24 97.6788 121.24ZM109.089 121.24C107.665 121.24 106.617 120.912 105.945 120.256C105.289 119.584 104.961 118.6 104.961 117.304V105.952L107.433 105.016V117.328C107.433 117.968 107.601 118.44 107.937 118.744C108.273 119.048 108.817 119.2 109.569 119.2C109.857 119.2 110.113 119.176 110.337 119.128C110.561 119.08 110.753 119.024 110.913 118.96V120.976C110.737 121.056 110.489 121.12 110.169 121.168C109.849 121.216 109.489 121.24 109.089 121.24ZM102.513 110.752V108.76H110.913V110.752H102.513ZM119.833 121C119.753 120.696 119.697 120.36 119.665 119.992C119.649 119.624 119.641 119.176 119.641 118.648H119.521V112.816C119.521 112.032 119.321 111.448 118.921 111.064C118.537 110.664 117.921 110.464 117.073 110.464C116.257 110.464 115.601 110.624 115.105 110.944C114.625 111.264 114.345 111.72 114.265 112.312H111.889C112.001 111.16 112.521 110.24 113.449 109.552C114.377 108.864 115.617 108.52 117.169 108.52C118.769 108.52 119.969 108.896 120.769 109.648C121.569 110.384 121.969 111.472 121.969 112.912V118.648C121.969 119.016 121.993 119.392 122.041 119.776C122.089 120.16 122.161 120.568 122.257 121H119.833ZM115.609 121.24C114.361 121.24 113.369 120.936 112.633 120.328C111.897 119.704 111.529 118.864 111.529 117.808C111.529 116.72 111.913 115.864 112.681 115.24C113.465 114.6 114.585 114.168 116.041 113.944L120.073 113.296V115.048L116.425 115.624C115.609 115.752 114.993 115.968 114.577 116.272C114.177 116.576 113.977 117.016 113.977 117.592C113.977 118.152 114.161 118.576 114.529 118.864C114.913 119.136 115.465 119.272 116.185 119.272C117.145 119.272 117.937 119.04 118.561 118.576C119.201 118.112 119.521 117.528 119.521 116.824L119.833 118.6C119.545 119.448 119.033 120.104 118.297 120.568C117.561 121.016 116.665 121.24 115.609 121.24ZM124.391 121V108.76H126.767V111.808H126.887V121H124.391ZM126.887 114.616L126.575 111.712C126.863 110.672 127.359 109.88 128.063 109.336C128.767 108.792 129.607 108.52 130.583 108.52C130.951 108.52 131.207 108.552 131.351 108.616V110.968C131.271 110.936 131.159 110.92 131.015 110.92C130.871 110.904 130.695 110.896 130.487 110.896C129.287 110.896 128.383 111.208 127.775 111.832C127.183 112.456 126.887 113.384 126.887 114.616ZM138.107 121.24C136.683 121.24 135.635 120.912 134.963 120.256C134.307 119.584 133.979 118.6 133.979 117.304V105.952L136.451 105.016V117.328C136.451 117.968 136.619 118.44 136.955 118.744C137.291 119.048 137.835 119.2 138.587 119.2C138.875 119.2 139.131 119.176 139.355 119.128C139.579 119.08 139.771 119.024 139.931 118.96V120.976C139.755 121.056 139.507 121.12 139.187 121.168C138.867 121.216 138.507 121.24 138.107 121.24ZM131.531 110.752V108.76H139.931V110.752H131.531ZM145.683 121.24C144.083 121.24 142.811 120.888 141.867 120.184C140.923 119.48 140.387 118.488 140.259 117.208H142.563C142.675 117.912 142.995 118.456 143.523 118.84C144.067 119.208 144.803 119.392 145.731 119.392C146.547 119.392 147.171 119.248 147.603 118.96C148.035 118.672 148.251 118.264 148.251 117.736C148.251 117.352 148.123 117.032 147.867 116.776C147.627 116.504 147.147 116.28 146.427 116.104L144.459 115.648C143.227 115.344 142.307 114.896 141.699 114.304C141.107 113.696 140.811 112.952 140.811 112.072C140.811 110.968 141.219 110.104 142.035 109.48C142.867 108.84 144.003 108.52 145.443 108.52C146.867 108.52 148.011 108.84 148.875 109.48C149.755 110.12 150.251 111.016 150.363 112.168H148.059C147.963 111.592 147.683 111.152 147.219 110.848C146.771 110.528 146.155 110.368 145.371 110.368C144.635 110.368 144.067 110.504 143.667 110.776C143.283 111.032 143.091 111.392 143.091 111.856C143.091 112.24 143.235 112.56 143.523 112.816C143.827 113.072 144.323 113.288 145.011 113.464L147.027 113.968C148.195 114.256 149.075 114.728 149.667 115.384C150.259 116.024 150.555 116.8 150.555 117.712C150.555 118.816 150.123 119.68 149.259 120.304C148.411 120.928 147.219 121.24 145.683 121.24ZM155.683 121V103.72H158.179V121H155.683ZM164.371 121V113.128C164.371 112.28 164.155 111.648 163.723 111.232C163.307 110.816 162.683 110.608 161.851 110.608C161.131 110.608 160.491 110.768 159.931 111.088C159.387 111.408 158.955 111.848 158.635 112.408C158.331 112.968 158.179 113.632 158.179 114.4L157.867 111.472C158.267 110.56 158.883 109.84 159.715 109.312C160.547 108.784 161.515 108.52 162.619 108.52C163.931 108.52 164.963 108.888 165.715 109.624C166.467 110.36 166.843 111.336 166.843 112.552V121H164.371ZM174.558 121.24C173.326 121.24 172.238 120.968 171.294 120.424C170.366 119.88 169.638 119.128 169.11 118.168C168.582 117.208 168.318 116.104 168.318 114.856C168.318 113.592 168.574 112.488 169.086 111.544C169.614 110.584 170.35 109.84 171.294 109.312C172.238 108.784 173.318 108.52 174.534 108.52C175.718 108.52 176.742 108.776 177.606 109.288C178.486 109.784 179.158 110.48 179.622 111.376C180.102 112.272 180.342 113.336 180.342 114.568C180.342 114.76 180.334 114.944 180.318 115.12C180.318 115.28 180.302 115.448 180.27 115.624H169.998V113.752H178.518L177.894 114.496C177.894 113.184 177.598 112.184 177.006 111.496C176.414 110.808 175.59 110.464 174.534 110.464C173.398 110.464 172.494 110.856 171.822 111.64C171.166 112.408 170.838 113.48 170.838 114.856C170.838 116.248 171.166 117.336 171.822 118.12C172.494 118.904 173.422 119.296 174.606 119.296C175.326 119.296 175.95 119.152 176.478 118.864C177.006 118.56 177.398 118.12 177.654 117.544H180.006C179.606 118.696 178.926 119.6 177.966 120.256C177.022 120.912 175.886 121.24 174.558 121.24ZM181.935 121V108.76H184.311V111.808H184.431V121H181.935ZM184.431 114.616L184.119 111.712C184.407 110.672 184.903 109.88 185.607 109.336C186.311 108.792 187.151 108.52 188.127 108.52C188.495 108.52 188.751 108.552 188.895 108.616V110.968C188.815 110.936 188.703 110.92 188.559 110.92C188.415 110.904 188.239 110.896 188.031 110.896C186.831 110.896 185.927 111.208 185.319 111.832C184.727 112.456 184.431 113.384 184.431 114.616ZM195.091 121.24C193.859 121.24 192.771 120.968 191.827 120.424C190.899 119.88 190.171 119.128 189.643 118.168C189.115 117.208 188.851 116.104 188.851 114.856C188.851 113.592 189.107 112.488 189.619 111.544C190.147 110.584 190.883 109.84 191.827 109.312C192.771 108.784 193.851 108.52 195.067 108.52C196.251 108.52 197.275 108.776 198.139 109.288C199.019 109.784 199.691 110.48 200.155 111.376C200.635 112.272 200.875 113.336 200.875 114.568C200.875 114.76 200.867 114.944 200.851 115.12C200.851 115.28 200.835 115.448 200.803 115.624H190.531V113.752H199.051L198.427 114.496C198.427 113.184 198.131 112.184 197.539 111.496C196.947 110.808 196.123 110.464 195.067 110.464C193.931 110.464 193.027 110.856 192.355 111.64C191.699 112.408 191.371 113.48 191.371 114.856C191.371 116.248 191.699 117.336 192.355 118.12C193.027 118.904 193.955 119.296 195.139 119.296C195.859 119.296 196.483 119.152 197.011 118.864C197.539 118.56 197.931 118.12 198.187 117.544H200.539C200.139 118.696 199.459 119.6 198.499 120.256C197.555 120.912 196.419 121.24 195.091 121.24Z" fill="#C0DDEF"/>
<defs>
<filter id="filter0_g_20_242" x="14.9722" y="17.3594" width="192.953" height="63.4443" filterUnits="userSpaceOnUse" color-interpolation-filters="sRGB">
<feFlood flood-opacity="0" result="BackgroundImageFix"/>
<feBlend mode="normal" in="SourceGraphic" in2="BackgroundImageFix" result="shape"/>
<feTurbulence type="fractalNoise" baseFrequency="0.15151515603065491 0.15151515603065491" numOctaves="3" seed="8975" />
<feDisplacementMap in="shape" scale="4" xChannelSelector="R" yChannelSelector="G" result="displacedImage" width="100%" height="100%" />
<feMerge result="effect1_texture_20_242">
<feMergeNode in="displacedImage"/>
</feMerge>
</filter>
</defs>
</svg>
