<svg width="65" height="65" viewBox="0 0 65 65" fill="none" xmlns="http://www.w3.org/2000/svg">
<rect width="64.629" height="64.629" rx="32.3145" fill="#85B5D9" fill-opacity="0.5"/>
<g filter="url(#filter1_g_148_389)">
<path d="M32.8716 53.9543C28.5435 53.9543 24.8038 53.1 21.6526 51.3916C18.5015 49.6451 16.0716 47.2153 14.3632 44.1021C12.6547 40.9509 11.8005 37.2682 11.8005 33.054C11.8005 28.8398 12.6547 25.1571 14.3632 22.0059C16.0716 18.8167 18.4445 16.33 21.4818 14.5456C24.5191 12.7232 28.0499 11.812 32.0743 11.812C35.3394 11.812 38.2628 12.4195 40.8444 13.6344C43.4641 14.8113 45.5712 16.4439 47.1658 18.532C48.7983 20.5822 49.7854 22.974 50.1271 25.7076H42.7238C42.3441 23.2777 41.2051 21.3605 39.3068 19.9557C37.4085 18.551 35.0356 17.8486 32.1882 17.8486C29.6065 17.8486 27.3475 18.4561 25.4113 19.671C23.475 20.8859 21.9754 22.6133 20.9123 24.8533C19.8493 27.0933 19.3177 29.7699 19.3177 32.8831C19.3177 36.0723 19.8493 38.8058 20.9123 41.0838C22.0133 43.3238 23.5889 45.0323 25.6391 46.2092C27.7272 47.3861 30.2709 47.9746 33.2702 47.9746C35.5862 47.9746 37.5794 47.6899 39.2499 47.1204C40.9204 46.5129 42.2682 45.6207 43.2932 44.4438L50.4119 47.2343C48.2478 49.4363 45.7421 51.1068 42.8946 52.2458C40.0472 53.3848 36.7062 53.9543 32.8716 53.9543ZM43.0085 47.2343V35.275L44.7739 37.0404H33.2133V31.2316H50.4119V47.2343H43.0085Z" fill="#F3F4F9"/>
</g>
<defs>
<filter id="filter1_g_148_389" x="9.86191" y="9.87363" width="42.4891" height="46.0203" filterUnits="userSpaceOnUse" color-interpolation-filters="sRGB">
<feFlood flood-opacity="0" result="BackgroundImageFix"/>
<feBlend mode="normal" in="SourceGraphic" in2="BackgroundImageFix" result="shape"/>
<feTurbulence type="fractalNoise" baseFrequency="0.38682299852371216 0.38682299852371216" numOctaves="3" seed="8975" />
<feDisplacementMap in="shape" scale="3.8777425289154053" xChannelSelector="R" yChannelSelector="G" result="displacedImage" width="100%" height="100%" />
<feMerge result="effect1_texture_148_389">
<feMergeNode in="displacedImage"/>
</feMerge>
</filter>
</defs>
</svg>
