<svg width="16" height="16" viewBox="0 0 16 16" fill="none" xmlns="http://www.w3.org/2000/svg">
<path d="M6.72078 10.5433H7.90595M7.90595 10.5433H9.14598M7.90595 10.5433V5.34541M7.90595 5.34541H5.97274C5.76769 5.34541 5.60146 5.51164 5.60146 5.71669V6.26269M7.90595 5.34541H9.68552C9.89058 5.34541 10.0568 5.51164 10.0568 5.71669V6.41557M3.37379 13.8848H12.2845C13.1047 13.8848 13.7696 13.2199 13.7696 12.3997V3.48902C13.7696 2.66881 13.1047 2.00391 12.2845 2.00391H3.37379C2.55358 2.00391 1.88867 2.66881 1.88867 3.48902V12.3997C1.88867 13.2199 2.55358 13.8848 3.37379 13.8848Z" stroke="white" stroke-width="1.2376" stroke-linecap="round" stroke-linejoin="round"/>
</svg>
